<svg id="Layer_1" data-name="Layer 1" xmlns="http://www.w3.org/2000/svg" viewBox="0 0 1667.857 216.542">
  <title>Acne_Studios_0216</title>
  <g>
    <rect x="1343.527" y="21.488" width="31.69" height="32.858"/>
    <path d="M1066.038,249.255c7.746,18.715,23.932,29.444,44.4,29.444,24.444,0,37.469-19.708,37.469-19.708v16h30.284V147.7H1146.7v70.285c0,5.557-.29,12.547-2.548,17.321-4.576,9.587-13.475,15.075-24.444,15.075-10.74,0-19.12-5.332-23.585-15.041-2.284-4.969-2.6-10.721-2.6-16.225l-.019-71.435h-31.457l.011,74.364C1062.051,231.186,1062.528,240.8,1066.038,249.255Z" transform="translate(-54.571 -62.157)"/>
    <rect x="1343.772" y="85.685" width="31.231" height="127.294"/>
    <path d="M1014.5,249.717c-13.112-1.18-17.978-6.894-17.978-20.663V176.366H1020.5v-28.6H996.521V102.318l-31.27-.008V147.77H952.636v28.6h12.616v58.223c-.019,13.108,3.716,23.528,11.137,30.93,11.512,11.577,28.665,12.814,35.5,12.814a75.871,75.871,0,0,0,8.842-.7V249.58A47,47,0,0,1,1014.5,249.717Z" transform="translate(-54.571 -62.157)"/>
    <path d="M126.193,72.55,54.571,275.006H89.649l11.855-36.6h72.271l11.859,36.6h35.307L150.137,72.55ZM163.78,207.463H111.5l26.132-80.8Z" transform="translate(-54.571 -62.157)"/>
    <path d="M1632.241,235.005h0c-1.165,25.162,20.029,43.236,44.878,43.236,22.271,0,45.31-15.075,45.31-40.306,0-16.294-9.167-28.756-26.595-35.227-7.952-2.952-18.57-4.377-25.747-6.894a13.332,13.332,0,0,1-9.121-12.852c.26-8.7,6.585-14.1,16.5-14.1,18.161,0,17.959,17.214,17.959,17.214l25.972-5.1s-3.331-37.022-43.931-37.022c-23.253,0-43.656,18.211-43.656,38.97,0,16.328,9.812,30.288,26.919,36.792,10.087,3.827,21.4,4.3,26.915,7.757,3.636,2.269,6.642,5.08,6.642,10.973,0,6.909-4.537,14.426-17.279,14.77h-.439c-8.212,0-18.5-6.065-17.436-18.219h-26.9Z" transform="translate(-54.571 -62.157)"/>
    <path d="M1534.54,144.023c-37.407,0-67.749,30.055-67.749,67.138s30.341,67.145,67.749,67.145,67.749-30.055,67.749-67.145S1571.959,144.023,1534.54,144.023Zm0,105.882c-20.377,0-36.873-17.352-36.873-38.748s16.5-38.74,36.873-38.74,36.892,17.352,36.892,38.74S1554.924,249.9,1534.54,249.9Z" transform="translate(-54.571 -62.157)"/>
    <path d="M310.557,249.859c-20.38,0-36.888-17.352-36.888-38.748s16.508-38.748,36.888-38.748c14.644,0,27.32,8.991,33.26,21.985l26.465-14.942a67.822,67.822,0,0,0-59.724-35.429c-37.411,0-67.73,30.051-67.745,67.119h0v.019h0v.015h0c.015,37.06,30.334,67.13,67.745,67.13a67.825,67.825,0,0,0,59.724-35.433l-26.465-14.934C337.881,240.876,325.2,249.859,310.557,249.859Z" transform="translate(-54.571 -62.157)"/>
    <path d="M834.539,151.436c-6.359-4.213-10.251-10.5-10.251-19.689,0-15.457,12.952-28.035,29.039-28.035,27.683,0,30.28,29.482,30.28,29.482l32.721-5.7c-1.631-16.565-13.429-54.06-63-54.847-34.657-.55-62.879,26.5-62.879,59.1,0,21.744,11.153,41.318,30.647,50.378,13.1,6.088,22.4,7.773,31.014,9.361,9.64,1.753,16.3,3.14,21.335,7.631a26.77,26.77,0,0,1,9.071,20.029c0,15.472-13.1,28.065-29.2,28.065-7.681,0-28.569-3.514-28.569-32.205l-33.981-.031c0,53.747,46.3,63.311,62.554,63.311,34.841,0,63.2-26.534,63.2-59.125,0-20.59-8.7-37.56-24.593-47.861-9.85-6.378-20.885-8.995-30.75-10.9C851.994,158.628,843.072,157.112,834.539,151.436Z" transform="translate(-54.571 -62.157)"/>
    <path d="M1320.37,62.157V161.89c-9.808-11.508-26.946-17.871-41.4-17.871-37.407,0-64.483,30.712-64.483,67.138,0,35.719,27.076,67.145,64.483,67.145,17.4,0,35.261-10.316,41.4-18.963V275.1h30.38V62.157ZM1282.213,249.9c-20.365,0-36.873-17.352-36.873-38.748s16.508-38.74,36.873-38.74,36.9,17.352,36.9,38.74S1302.59,249.9,1282.213,249.9Z" transform="translate(-54.571 -62.157)"/>
    <path d="M694.481,211.157c0-37.083-30.334-67.138-67.749-67.138S559,174.074,559,211.157,589.321,278.3,626.732,278.3a67.826,67.826,0,0,0,54.709-27.557L657.1,233.168A36.394,36.394,0,0,1,626.732,249.9c-16.748,0-30.9-11.733-35.391-27.267l102.242-.015A79.971,79.971,0,0,0,694.481,211.157ZM592.239,196.612c5.278-14.613,18.727-25,34.489-25s29.23,10.389,34.508,25Z" transform="translate(-54.571 -62.157)"/>
    <path d="M518.654,173.574c-7.75-18.715-23.932-29.44-44.4-29.44-24.444,0-37.465,19.708-37.465,19.708V147.789H406.5V275.132H438V204.847c0-5.557.286-12.547,2.544-17.321,4.576-9.587,13.475-15.075,24.444-15.075,10.744,0,19.12,5.332,23.585,15.037,2.284,4.969,2.6,10.721,2.6,16.225l.019,71.435h31.453l-.008-74.368C522.641,191.643,522.164,182.026,518.654,173.574Z" transform="translate(-54.571 -62.157)"/>
  </g>
</svg>
