<svg id="Layer_1" data-name="Layer 1" xmlns="http://www.w3.org/2000/svg" viewBox="0 0 1963.407 892.243">
  <defs>
    <style>
      .cls-1 {
        fill: #231f20;
      }
    </style>
  </defs>
  <title>ADIA_Logo_0416</title>
  <path class="cls-1" d="M844.858,837q0-150.5,0-301c0-2.166-.4-4.473.217-6.452.461-1.471,2.151-2.7,3.547-3.672.685-.479,1.944-.162,2.943-.161,83,.065,166.005-.587,248.991.453,56.232.7,110.187,12.73,159.559,40.98,60.311,34.509,98.371,86.619,118.794,152.283,15.1,48.544,18.674,98.373,15.434,148.828-2.625,40.883-10.848,80.565-27.32,118.245-34.552,79.041-94.7,127.864-177.548,149.626-32.909,8.645-66.461,12.188-100.449,12.164q-117-.081-234-.021c-2.166,0-4.478.4-6.45-.24A6.332,6.332,0,0,1,845,1144.45c-.632-1.973-.233-4.284-.233-6.45q-.006-150.5,0-301Zm111.462-.292q0,140.715,0,281.431c0,8.022.108,8.133,8.071,8.136,34.492.011,68.984.137,103.474-.083a230.717,230.717,0,0,0,29.392-1.863c54.362-7.353,97.677-33.87,130.515-77.345,37.867-50.132,54.275-108.115,60.155-169.693,3.084-32.294,2.278-64.578-1.088-96.792-4.34-41.534-13.377-81.905-32.036-119.571-35.81-72.287-94.018-110.585-174.826-112.818-39.128-1.081-78.308-.271-117.464-.314-.666,0-1.547-.23-1.96.1-1.472,1.187-3.348,2.341-4,3.944-.7,1.721-.23,3.935-.23,5.934Q956.316,697.247,956.32,836.712Z" transform="translate(-246.808 -525.549)"/>
  <path class="cls-1" d="M1924.894,682.59c-.833,1.929-1.758,3.824-2.488,5.791Q1838.685,914,1754.975,1139.633c-3.589,9.67-1.94,8.548-12.218,8.64-7.781.069-15.564.014-24.235.014.923-3.113,1.426-5.306,2.213-7.391q113.846-301.606,227.771-603.183c5.417-14.336,1.9-12.048,17.4-11.986,17.976.071,13.515-2.975,19.676,13.666q110.978,299.742,221.753,599.56c.962,2.6,1.766,5.259,2.878,8.592a62.784,62.784,0,0,1-6.393.709c-37.16.038-74.32-.1-111.478.168-5.646.041-6.909-3-8.332-7.162q-61.957-181.118-124.01-362.2-15.546-45.392-31.114-90.777c-.672-1.956-1.6-3.824-2.412-5.733Z" transform="translate(-246.808 -525.549)"/>
  <path class="cls-1" d="M741.517,1147.856c-3.055.18-5.17.412-7.285.413-36.164.022-72.329-.106-108.492.141-5.735.039-8.372-1.605-10.3-7.244Q538.35,915.542,460.856,690.054c-.88-2.565-1.971-5.057-2.964-7.583l-1.549-.041c-1.061,2.5-2.227,4.953-3.169,7.493q-61.543,165.9-123.049,331.824c-14.829,39.995-29.734,79.961-44.382,120.022-1.761,4.818-4.031,6.986-9.334,6.624-6.635-.453-13.325-.073-19.991-.135-1.93-.018-3.857-.319-6.461-.55.836-2.794,1.354-5.009,2.15-7.119Q360.083,854.624,468.1,568.675c4.769-12.626,9.689-25.2,14.242-37.9,1.438-4.013,3.747-5.36,7.8-5.177a149.866,149.866,0,0,0,15.991-.019c4.445-.275,6.453,1.613,7.937,5.662q24.688,67.349,49.659,134.594,87.733,237.5,175.45,475C739.915,1142.829,740.527,1144.871,741.517,1147.856Z" transform="translate(-246.808 -525.549)"/>
  <path class="cls-1" d="M1500.951,837q-.007-149.7,0-299.405c0-1.666-.009-3.332.005-5,.058-6.76.122-6.867,7.114-6.874q35.739-.036,71.477-.012c9.164,0,18.331.166,27.49-.057,4.4-.107,6.095,1.673,5.787,5.887-.121,1.657,0,3.331,0,5q-.036,300.655-.071,601.31c0,11.9.027,10.394-10.183,10.413q-45.735.086-91.471.011c-11.3-.01-10.117.7-10.12-10.367Q1500.931,987.457,1500.951,837Z" transform="translate(-246.808 -525.549)"/>
  <g>
    <path d="M288.135,1287.618h10.944L339.4,1390.433H328.886l-12.528-31.968h-46.8l-12.384,31.968H246.808Zm-15.552,62.5h40.463l-19.872-52.7Z" transform="translate(-246.808 -525.549)"/>
    <path d="M347.03,1287.618H356.1v42.624h.288a21.486,21.486,0,0,1,4.1-7.057,26.075,26.075,0,0,1,6.12-5.111,27.073,27.073,0,0,1,7.488-3.1,33.094,33.094,0,0,1,8.064-1.009,32.316,32.316,0,0,1,14.759,3.168,30.275,30.275,0,0,1,10.44,8.568,36.463,36.463,0,0,1,6.192,12.527,57.165,57.165,0,0,1,0,30.1,36.445,36.445,0,0,1-6.192,12.527,29.545,29.545,0,0,1-10.44,8.5,32.945,32.945,0,0,1-14.759,3.1,31.44,31.44,0,0,1-16.2-4.176,23.926,23.926,0,0,1-10.3-11.951h-.288v14.111H347.03Zm59.471,65.663a48.778,48.778,0,0,0-1.368-11.447,31.656,31.656,0,0,0-4.32-10.152,23.793,23.793,0,0,0-7.56-7.271,20.907,20.907,0,0,0-11.087-2.809A24.4,24.4,0,0,0,370,1324.41a24.049,24.049,0,0,0-8.064,7.271,29.893,29.893,0,0,0-4.464,10.152,48.577,48.577,0,0,0,0,22.9,29.888,29.888,0,0,0,4.464,10.151,24.038,24.038,0,0,0,8.064,7.271,24.4,24.4,0,0,0,12.168,2.809,20.907,20.907,0,0,0,11.087-2.809,23.783,23.783,0,0,0,7.56-7.271,31.65,31.65,0,0,0,4.32-10.151A48.792,48.792,0,0,0,406.5,1353.281Z" transform="translate(-246.808 -525.549)"/>
    <path d="M489.875,1390.433h-8.352v-13.392h-.288a25.742,25.742,0,0,1-10.44,11.447,29.762,29.762,0,0,1-15.191,3.96,33.05,33.05,0,0,1-12.024-1.943,20.033,20.033,0,0,1-8.064-5.544,22.485,22.485,0,0,1-4.536-8.784,44.174,44.174,0,0,1-1.44-11.808V1316.13h9.072v48.383q.288,10.081,4.68,15.264t15.192,5.185a19.151,19.151,0,0,0,10.08-2.521,21.4,21.4,0,0,0,6.912-6.7,30.174,30.174,0,0,0,4.032-9.576,47.044,47.044,0,0,0,1.3-11.016V1316.13h9.072Z" transform="translate(-246.808 -525.549)"/>
    <path d="M548.771,1287.618h35.567q23.472.577,35.352,13.176t11.879,38.231q0,25.632-11.879,38.231t-35.352,13.176H548.771Zm9.792,94.463h20.879a67.442,67.442,0,0,0,19.08-2.376,30.543,30.543,0,0,0,13.176-7.561,31.083,31.083,0,0,0,7.632-13.392,80.7,80.7,0,0,0,0-39.455,31.094,31.094,0,0,0-7.632-13.392,30.541,30.541,0,0,0-13.176-7.56,67.442,67.442,0,0,0-19.08-2.376H558.563Z" transform="translate(-246.808 -525.549)"/>
    <path d="M645.539,1287.618h9.072v41.328h.288a21.756,21.756,0,0,1,9.216-10.872,27.079,27.079,0,0,1,14.544-4.1,36.624,36.624,0,0,1,13.032,2.017,20.611,20.611,0,0,1,8.424,5.688,21.2,21.2,0,0,1,4.464,9,50.676,50.676,0,0,1,1.3,11.952v47.807H696.8v-46.367a42.983,42.983,0,0,0-.864-8.855,18.745,18.745,0,0,0-3.024-7.128,14.667,14.667,0,0,0-5.832-4.752,21.429,21.429,0,0,0-9.144-1.729,23.121,23.121,0,0,0-9.72,1.944,21.037,21.037,0,0,0-7.2,5.328,24.6,24.6,0,0,0-4.608,8.063,32.842,32.842,0,0,0-1.8,10.152v43.343h-9.072Z" transform="translate(-246.808 -525.549)"/>
    <path d="M722.145,1338.882a30.189,30.189,0,0,1,2.736-11.232,21.29,21.29,0,0,1,6.264-7.775,26.519,26.519,0,0,1,9.288-4.464,45.217,45.217,0,0,1,11.808-1.44,52.037,52.037,0,0,1,9.792.937,23.667,23.667,0,0,1,8.784,3.527,19.217,19.217,0,0,1,6.336,7.272q2.448,4.68,2.448,12.168v39.455q0,5.471,5.328,5.472a7.016,7.016,0,0,0,2.88-.576v7.632q-1.583.289-2.808.433a27.431,27.431,0,0,1-3.1.144,13.73,13.73,0,0,1-5.544-.936,7.443,7.443,0,0,1-3.24-2.664,10,10,0,0,1-1.512-4.1,35.269,35.269,0,0,1-.36-5.256h-.288a60.609,60.609,0,0,1-4.968,6.408,24.7,24.7,0,0,1-5.616,4.68,25.891,25.891,0,0,1-7.056,2.88,38.624,38.624,0,0,1-9.432,1.008,37.165,37.165,0,0,1-9.72-1.224,21.848,21.848,0,0,1-7.92-3.888,18.6,18.6,0,0,1-5.328-6.769,22.509,22.509,0,0,1-1.944-9.72q0-7.775,3.456-12.167a21.74,21.74,0,0,1,9.144-6.7,52.154,52.154,0,0,1,12.816-3.24q7.128-.936,14.472-1.8,2.88-.287,5.04-.72a8.788,8.788,0,0,0,3.6-1.512,7.006,7.006,0,0,0,2.232-2.952,12.73,12.73,0,0,0,.792-4.9,16.553,16.553,0,0,0-1.512-7.56,11.957,11.957,0,0,0-4.176-4.68,16.823,16.823,0,0,0-6.192-2.376,41.883,41.883,0,0,0-7.56-.648q-8.64,0-14.112,4.1t-5.76,13.176Zm48.383,10.943h-.288a5.2,5.2,0,0,1-3.312,2.3,33.828,33.828,0,0,1-4.32,1.009q-5.76,1.008-11.88,1.8a65.02,65.02,0,0,0-11.16,2.376,21.774,21.774,0,0,0-8.28,4.536q-3.24,2.952-3.24,8.424a13.205,13.205,0,0,0,1.368,6.119,14.838,14.838,0,0,0,3.672,4.608,16.045,16.045,0,0,0,5.328,2.952,19.461,19.461,0,0,0,6.192,1.008,31.221,31.221,0,0,0,9.936-1.584,24.446,24.446,0,0,0,8.28-4.608,21.926,21.926,0,0,0,7.7-17.136Z" transform="translate(-246.808 -525.549)"/>
    <path d="M797.744,1287.618h9.072v42.624h.288a21.486,21.486,0,0,1,4.1-7.057,26.075,26.075,0,0,1,6.12-5.111,27.073,27.073,0,0,1,7.488-3.1,33.094,33.094,0,0,1,8.064-1.009,32.316,32.316,0,0,1,14.759,3.168,30.275,30.275,0,0,1,10.44,8.568,36.463,36.463,0,0,1,6.192,12.527,57.165,57.165,0,0,1,0,30.1,36.445,36.445,0,0,1-6.192,12.527,29.545,29.545,0,0,1-10.44,8.5,32.945,32.945,0,0,1-14.759,3.1,31.44,31.44,0,0,1-16.2-4.176,23.926,23.926,0,0,1-10.3-11.951H806.1v14.111h-8.352Zm59.471,65.663a48.778,48.778,0,0,0-1.368-11.447,31.656,31.656,0,0,0-4.32-10.152,23.793,23.793,0,0,0-7.56-7.271,20.907,20.907,0,0,0-11.087-2.809,24.4,24.4,0,0,0-12.168,2.809,24.049,24.049,0,0,0-8.064,7.271,29.893,29.893,0,0,0-4.464,10.152,48.577,48.577,0,0,0,0,22.9,29.888,29.888,0,0,0,4.464,10.151,24.038,24.038,0,0,0,8.064,7.271,24.4,24.4,0,0,0,12.168,2.809,20.907,20.907,0,0,0,11.087-2.809,23.783,23.783,0,0,0,7.56-7.271,31.65,31.65,0,0,0,4.32-10.151A48.792,48.792,0,0,0,857.215,1353.281Z" transform="translate(-246.808 -525.549)"/>
    <path d="M880.542,1287.618h9.072v14.544h-9.072Zm0,28.512h9.072v74.3h-9.072Z" transform="translate(-246.808 -525.549)"/>
    <path d="M949.519,1287.618h9.792v102.814h-9.792Z" transform="translate(-246.808 -525.549)"/>
    <path d="M978.892,1316.13h9.072v12.816h.288a21.756,21.756,0,0,1,9.216-10.872,27.079,27.079,0,0,1,14.544-4.1,36.624,36.624,0,0,1,13.032,2.017,20.611,20.611,0,0,1,8.424,5.688,21.2,21.2,0,0,1,4.464,9,50.676,50.676,0,0,1,1.3,11.952v47.807h-9.072v-46.367a42.983,42.983,0,0,0-.864-8.855,18.745,18.745,0,0,0-3.024-7.128,14.667,14.667,0,0,0-5.832-4.752,21.429,21.429,0,0,0-9.144-1.729,23.121,23.121,0,0,0-9.72,1.944,21.037,21.037,0,0,0-7.2,5.328,24.6,24.6,0,0,0-4.608,8.063,32.842,32.842,0,0,0-1.8,10.152v43.343h-9.072Z" transform="translate(-246.808 -525.549)"/>
    <path d="M1048.011,1316.13h10.08l23.328,65.23h.288l23.04-65.23h9.36l-27.792,74.3h-9.648Z" transform="translate(-246.808 -525.549)"/>
    <path d="M1128.362,1355.729a40.251,40.251,0,0,0,1.368,10.151,27.878,27.878,0,0,0,4.392,9.432,25.149,25.149,0,0,0,7.632,6.912,21.339,21.339,0,0,0,11.088,2.736q9.936,0,15.552-5.185a27.267,27.267,0,0,0,7.776-13.823h9.072q-2.88,12.672-10.584,19.584t-21.815,6.911a34.591,34.591,0,0,1-15.192-3.1,27.955,27.955,0,0,1-10.439-8.5,36.949,36.949,0,0,1-5.976-12.527,56.958,56.958,0,0,1-1.944-15.048,53.972,53.972,0,0,1,1.944-14.4,38.66,38.66,0,0,1,5.976-12.6,30,30,0,0,1,10.439-8.928,32.1,32.1,0,0,1,15.192-3.385A29.387,29.387,0,0,1,1178.4,1327a39.1,39.1,0,0,1,5.688,13.392,58.819,58.819,0,0,1,1.44,15.336Zm48.1-7.632a32.772,32.772,0,0,0-1.8-9.936,27.2,27.2,0,0,0-4.68-8.424,23.2,23.2,0,0,0-7.344-5.9,21.016,21.016,0,0,0-9.792-2.232,21.339,21.339,0,0,0-9.936,2.232,23.2,23.2,0,0,0-7.344,5.9,29.4,29.4,0,0,0-4.824,8.5,41.622,41.622,0,0,0-2.376,9.864Z" transform="translate(-246.808 -525.549)"/>
    <path d="M1242.265,1337.874a17.1,17.1,0,0,0-1.728-7.272,14.716,14.716,0,0,0-4.248-5.111,17.675,17.675,0,0,0-6.12-2.952,27.983,27.983,0,0,0-7.344-.937,29.834,29.834,0,0,0-6.12.648,18.876,18.876,0,0,0-5.688,2.16,12.227,12.227,0,0,0-4.176,3.96,10.909,10.909,0,0,0-1.583,6.048,8.482,8.482,0,0,0,1.512,5.111,13.437,13.437,0,0,0,3.816,3.528,24.327,24.327,0,0,0,5.04,2.376q2.736.936,5.04,1.512l12.1,2.736a34.65,34.65,0,0,1,7.7,2.088,24.862,24.862,0,0,1,6.768,3.96,19.337,19.337,0,0,1,4.824,6.048,18.189,18.189,0,0,1,1.872,8.5,18.612,18.612,0,0,1-2.736,10.295,22.323,22.323,0,0,1-6.984,6.912,29.661,29.661,0,0,1-9.576,3.816,49.66,49.66,0,0,1-10.512,1.151q-13.1,0-21.239-6.191t-9.288-19.872h9.072q.576,9.217,6.7,13.9t15.192,4.68a34.215,34.215,0,0,0,6.84-.72,21.991,21.991,0,0,0,6.552-2.448,15.7,15.7,0,0,0,4.968-4.393,10.811,10.811,0,0,0,1.944-6.552,10.432,10.432,0,0,0-1.368-5.544,11.875,11.875,0,0,0-3.672-3.743,23.163,23.163,0,0,0-5.256-2.521q-2.952-1.008-5.976-1.728l-11.664-2.592a66.06,66.06,0,0,1-8.208-2.664,26.239,26.239,0,0,1-6.552-3.744,15.725,15.725,0,0,1-4.392-5.472,18.109,18.109,0,0,1-1.584-7.992,17.835,17.835,0,0,1,2.52-9.647,19.664,19.664,0,0,1,6.552-6.48,30.484,30.484,0,0,1,9-3.6,43.632,43.632,0,0,1,9.864-1.152,36.314,36.314,0,0,1,10.44,1.44,23.988,23.988,0,0,1,8.5,4.464,21.924,21.924,0,0,1,5.832,7.488,26.9,26.9,0,0,1,2.448,10.512Z" transform="translate(-246.808 -525.549)"/>
    <path d="M1281.432,1316.13h15.12v7.632h-15.12v50.111a16.271,16.271,0,0,0,1.224,6.983q1.224,2.521,6.12,2.809a70.333,70.333,0,0,0,7.776-.433v7.632q-2.016,0-4.032.145t-4.032.144q-9.072,0-12.671-3.527t-3.456-13.032v-50.831H1259.4v-7.632h12.96v-22.319h9.072Z" transform="translate(-246.808 -525.549)"/>
    <path d="M1309.654,1316.13h8.352v12.528h.433a28.438,28.438,0,0,1,9.432-10.8q5.832-3.889,14.9-3.889a25.312,25.312,0,0,1,13.32,3.6,17.649,17.649,0,0,1,7.991,10.943,22.8,22.8,0,0,1,9.792-10.943,28.024,28.024,0,0,1,13.824-3.6q24.623,0,24.623,26.063v50.4h-9.071v-49.967q0-9.217-3.889-14.04t-13.68-4.824a19.441,19.441,0,0,0-9.791,2.232,17.192,17.192,0,0,0-6.192,5.976,25.439,25.439,0,0,0-3.24,8.568,52.51,52.51,0,0,0-.936,10.008v42.047h-9.072v-50.4a31.186,31.186,0,0,0-.792-7.128,16.489,16.489,0,0,0-2.592-5.9,12.28,12.28,0,0,0-4.823-3.96,17,17,0,0,0-7.344-1.44,22.448,22.448,0,0,0-10.008,2.088,18.42,18.42,0,0,0-6.912,5.761,25.505,25.505,0,0,0-3.96,8.64,42.988,42.988,0,0,0-1.3,10.871v41.472h-9.072Z" transform="translate(-246.808 -525.549)"/>
    <path d="M1434.934,1355.729a40.251,40.251,0,0,0,1.368,10.151,27.9,27.9,0,0,0,4.392,9.432,25.137,25.137,0,0,0,7.632,6.912,21.338,21.338,0,0,0,11.088,2.736q9.936,0,15.552-5.185a27.259,27.259,0,0,0,7.775-13.823h9.072q-2.88,12.672-10.584,19.584t-21.815,6.911a34.589,34.589,0,0,1-15.191-3.1,27.958,27.958,0,0,1-10.44-8.5,36.957,36.957,0,0,1-5.976-12.527,56.958,56.958,0,0,1-1.944-15.048,53.972,53.972,0,0,1,1.944-14.4,38.669,38.669,0,0,1,5.976-12.6,30,30,0,0,1,10.44-8.928,32.1,32.1,0,0,1,15.191-3.385,29.387,29.387,0,0,1,25.56,13.032,39.081,39.081,0,0,1,5.688,13.392,58.778,58.778,0,0,1,1.44,15.336Zm48.095-7.632a32.741,32.741,0,0,0-1.8-9.936,27.188,27.188,0,0,0-4.68-8.424,23.19,23.19,0,0,0-7.344-5.9,21.018,21.018,0,0,0-9.792-2.232,21.335,21.335,0,0,0-9.936,2.232,23.19,23.19,0,0,0-7.344,5.9,29.394,29.394,0,0,0-4.824,8.5,41.622,41.622,0,0,0-2.376,9.864Z" transform="translate(-246.808 -525.549)"/>
    <path d="M1504.2,1316.13h9.071v12.816h.288a21.756,21.756,0,0,1,9.216-10.872,27.078,27.078,0,0,1,14.544-4.1,36.623,36.623,0,0,1,13.031,2.017,20.608,20.608,0,0,1,8.424,5.688,21.2,21.2,0,0,1,4.465,9,50.7,50.7,0,0,1,1.3,11.952v47.807h-9.072v-46.367a42.949,42.949,0,0,0-.864-8.855,18.737,18.737,0,0,0-3.023-7.128,14.667,14.667,0,0,0-5.832-4.752,21.43,21.43,0,0,0-9.144-1.729,23.119,23.119,0,0,0-9.72,1.944,21.039,21.039,0,0,0-7.2,5.328,24.605,24.605,0,0,0-4.608,8.063,32.885,32.885,0,0,0-1.8,10.152v43.343H1504.2Z" transform="translate(-246.808 -525.549)"/>
    <path d="M1596.066,1316.13h15.12v7.632h-15.12v50.111a16.263,16.263,0,0,0,1.225,6.983q1.223,2.521,6.12,2.809a70.331,70.331,0,0,0,7.775-.433v7.632q-2.016,0-4.032.145t-4.031.144q-9.072,0-12.672-3.527T1587,1374.593v-50.831h-12.96v-7.632H1587v-22.319h9.071Z" transform="translate(-246.808 -525.549)"/>
    <path d="M1696.145,1287.618h10.944l40.319,102.814H1736.9l-12.528-31.968h-46.8l-12.384,31.968h-10.368Zm-15.552,62.5h40.464l-19.872-52.7Z" transform="translate(-246.808 -525.549)"/>
    <path d="M1815.231,1390.433h-8.353v-13.392h-.288a25.741,25.741,0,0,1-10.439,11.447,29.762,29.762,0,0,1-15.191,3.96,33.055,33.055,0,0,1-12.024-1.943,20.038,20.038,0,0,1-8.063-5.544,22.492,22.492,0,0,1-4.536-8.784,44.2,44.2,0,0,1-1.439-11.808V1316.13h9.071v48.383q.289,10.081,4.681,15.264t15.191,5.185a19.154,19.154,0,0,0,10.08-2.521,21.4,21.4,0,0,0,6.911-6.7,30.163,30.163,0,0,0,4.032-9.576,47.018,47.018,0,0,0,1.3-11.016V1316.13h9.072Z" transform="translate(-246.808 -525.549)"/>
    <path d="M1846.766,1316.13h15.12v7.632h-15.12v50.111a16.263,16.263,0,0,0,1.225,6.983q1.223,2.521,6.12,2.809a70.331,70.331,0,0,0,7.775-.433v7.632q-2.016,0-4.032.145t-4.031.144q-9.072,0-12.672-3.527t-3.456-13.032v-50.831h-12.96v-7.632h12.96v-22.319h9.071Z" transform="translate(-246.808 -525.549)"/>
    <path d="M1874.846,1287.618h9.071v41.328h.288a21.756,21.756,0,0,1,9.216-10.872,27.078,27.078,0,0,1,14.544-4.1,36.623,36.623,0,0,1,13.031,2.017,20.608,20.608,0,0,1,8.424,5.688,21.2,21.2,0,0,1,4.465,9,50.7,50.7,0,0,1,1.3,11.952v47.807h-9.072v-46.367a42.949,42.949,0,0,0-.864-8.855,18.737,18.737,0,0,0-3.023-7.128,14.667,14.667,0,0,0-5.832-4.752,21.43,21.43,0,0,0-9.144-1.729,23.119,23.119,0,0,0-9.72,1.944,21.039,21.039,0,0,0-7.2,5.328,24.605,24.605,0,0,0-4.608,8.063,32.885,32.885,0,0,0-1.8,10.152v43.343h-9.071Z" transform="translate(-246.808 -525.549)"/>
    <path d="M1983.707,1313.97a34.156,34.156,0,0,1,15.048,3.168,32.78,32.78,0,0,1,11.016,8.5,36.779,36.779,0,0,1,6.768,12.456,51.22,51.22,0,0,1,0,30.383,36.779,36.779,0,0,1-6.768,12.456,31.983,31.983,0,0,1-11.016,8.424,38.121,38.121,0,0,1-30.1,0,31.983,31.983,0,0,1-11.016-8.424,36.762,36.762,0,0,1-6.768-12.456,51.22,51.22,0,0,1,0-30.383,36.762,36.762,0,0,1,6.768-12.456,32.78,32.78,0,0,1,11.016-8.5A34.17,34.17,0,0,1,1983.707,1313.97Zm0,7.632a22.929,22.929,0,0,0-11.376,2.736,24.977,24.977,0,0,0-8.136,7.2,32.643,32.643,0,0,0-4.9,10.151,41.393,41.393,0,0,0,0,23.184,32.659,32.659,0,0,0,4.9,10.152,24.985,24.985,0,0,0,8.136,7.2,25.015,25.015,0,0,0,22.752,0,24.985,24.985,0,0,0,8.136-7.2,32.659,32.659,0,0,0,4.9-10.152,41.393,41.393,0,0,0,0-23.184,32.643,32.643,0,0,0-4.9-10.151,24.977,24.977,0,0,0-8.136-7.2A22.942,22.942,0,0,0,1983.707,1321.6Z" transform="translate(-246.808 -525.549)"/>
    <path d="M2032.379,1316.13h8.352v17.424h.288a28.52,28.52,0,0,1,10.729-13.968q7.271-4.9,17.352-4.464v9.072a27.385,27.385,0,0,0-11.232,1.655,25.291,25.291,0,0,0-8.712,5.544,25.025,25.025,0,0,0-5.687,8.568,28.647,28.647,0,0,0-2.016,10.871v39.6h-9.072Z" transform="translate(-246.808 -525.549)"/>
    <path d="M2077.882,1287.618h9.071v14.544h-9.071Zm0,28.512h9.071v74.3h-9.071Z" transform="translate(-246.808 -525.549)"/>
    <path d="M2118.777,1316.13H2133.9v7.632h-15.119v50.111a16.265,16.265,0,0,0,1.224,6.983q1.223,2.521,6.12,2.809a70.331,70.331,0,0,0,7.775-.433v7.632q-2.016,0-4.032.145t-4.031.144q-9.072,0-12.672-3.527t-3.456-13.032v-50.831h-12.96v-7.632h12.96v-22.319h9.072Z" transform="translate(-246.808 -525.549)"/>
    <path d="M2138.647,1316.13h9.647l24.479,63.359,22.9-63.359h9.072l-32.256,85.534a82.961,82.961,0,0,1-3.743,7.849,17.9,17.9,0,0,1-3.816,4.9,12.645,12.645,0,0,1-4.9,2.592,26.8,26.8,0,0,1-7.128.792q-2.736-.144-4.248-.216a8.818,8.818,0,0,1-2.664-.5v-7.632q1.583.287,3.1.5a21.935,21.935,0,0,0,3.1.216,12.3,12.3,0,0,0,4.968-.864,10.5,10.5,0,0,0,3.384-2.376,13.606,13.606,0,0,0,2.447-3.672q1.009-2.159,2.16-4.752l3.168-8.352Z" transform="translate(-246.808 -525.549)"/>
  </g>
</svg>
